<svg width="154" height="153" viewBox="81 0 154 153" fill="none" xmlns="http://www.w3.org/2000/svg">
<path fill-rule="evenodd" clip-rule="evenodd" d="M125.155 76.7057C101.194 76.7057 81.7695 57.2813 81.7695 33.3201V0H158.475V76.7057H125.155ZM99.6016 38.3526H146.307C146.943 45.8188 143.354 60.7512 123.908 60.7512C104.463 60.7512 99.6016 45.8188 99.6016 38.3526Z" fill="#1E1E1E"/>
<path fill-rule="evenodd" clip-rule="evenodd" d="M191.857 76.7051C215.818 76.7051 235.243 96.1295 235.243 120.091V153.411H158.537V76.7051H191.857ZM216.175 116.027C216.425 118.952 215.121 123.352 212.037 127.033C208.989 130.672 204.25 133.547 197.682 133.547C191.79 133.547 186.744 130.681 183.145 126.974C179.51 123.228 177.525 118.81 177.525 115.934H175.337C175.337 119.586 177.716 124.521 181.575 128.498C185.471 132.512 191.051 135.735 197.682 135.735C204.962 135.735 210.294 132.521 213.714 128.438C217.099 124.398 218.662 119.444 218.356 115.841L216.175 116.027Z" fill="#1E1E1E"/>
<path fill-rule="evenodd" clip-rule="evenodd" d="M235.243 76.7057H201.923C177.962 76.7057 158.537 57.2813 158.537 33.3201V0H235.243V76.7057ZM178.835 25.5259C177.7 26.8777 177.249 28.4654 177.333 29.4549L175.556 29.6067C175.424 28.0637 176.088 26.0227 177.468 24.3787C178.878 22.6996 181.078 21.3812 184.059 21.3812C186.794 21.3812 189.078 22.7076 190.657 24.3303C192.205 25.9221 193.215 27.9475 193.215 29.5308L191.431 29.5308C191.431 28.5816 190.744 26.9783 189.378 25.5743C188.042 24.2013 186.194 23.1652 184.059 23.1652C181.656 23.1652 179.94 24.2093 178.835 25.5259ZM204.674 29.4552C204.59 28.4645 205.04 26.8762 206.17 25.5246C207.271 24.2081 208.979 23.1652 211.37 23.1652C213.494 23.1652 215.334 24.2001 216.664 25.573C218.024 26.9766 218.709 28.5803 218.709 29.5308L220.493 29.5308C220.493 27.9488 219.488 25.9237 217.945 24.3316C216.373 22.7088 214.097 21.3812 211.37 21.3812C208.398 21.3812 206.206 22.7008 204.801 24.3801C203.426 26.0242 202.765 28.0647 202.897 29.6064L204.674 29.4552Z" fill="#22B34F"/>
<path fill-rule="evenodd" clip-rule="evenodd" d="M115.09 76.7051H81.7695V153.411H158.475V120.091C158.475 96.1295 139.051 76.7051 115.09 76.7051ZM113.927 107.895C113.927 111.851 110.72 115.058 106.763 115.058C102.807 115.058 99.5996 111.851 99.5996 107.895C99.5996 103.938 102.807 100.731 106.763 100.731C110.72 100.731 113.927 103.938 113.927 107.895ZM140.956 107.895C140.956 111.851 137.748 115.058 133.792 115.058C129.835 115.058 126.628 111.851 126.628 107.895C126.628 103.938 129.835 100.731 133.792 100.731C137.748 100.731 140.956 103.938 140.956 107.895Z" fill="#22B34F"/>
</svg>